<?xml version="1.0"?>
<svg xmlns="http://www.w3.org/2000/svg" height="512px" viewBox="-77 0 512 512" width="512px" class=""><g><script xmlns="" style="fill:null"/><path d="m342.734375 0c-11.261719 0-313.285156 0-329.570313 0-7.269531 0-13.16015575 5.894531-13.16015575 13.164062v346.464844c0 7.269532 5.89062475 13.164063 13.16015575 13.164063h342.734376v-359.628907c0-7.269531-5.894532-13.164062-13.164063-13.164062zm0 0" fill="#fff5f4" data-original="#FFF5F4" class="" style="fill:#FFF5F4"/><path d="m49.546875 372.792969h-36.386719c-7.265625 0-13.160156-5.894531-13.160156-13.160157v-346.472656c0-7.265625 5.894531-13.160156 13.160156-13.160156h36.386719c-7.265625 0-13.160156 5.894531-13.160156 13.160156v346.472656c0 7.265626 5.894531 13.160157 13.160156 13.160157zm0 0" fill="#ebe0da" data-original="#EBE0DA" class="" style="fill:#EBE0DA"/><path d="m355.898438 13.160156v359.632813h-92.421876v-359.632813c0-7.265625-5.894531-13.160156-13.160156-13.160156h92.421875c7.265625 0 13.160157 5.894531 13.160157 13.160156zm0 0" fill="#ebe0da" data-original="#EBE0DA" class="" style="fill:#EBE0DA"/><path d="m158.238281 46.804688v82.511718c0 6.113282-5 11.113282-11.113281 11.113282h-100.445312c-6.113282 0-11.113282-5-11.113282-11.113282v-82.511718c0-6.113282 5-11.113282 11.113282-11.113282h100.445312c6.113281 0 11.113281 5 11.113281 11.113282zm0 0" fill="#c0dbff" data-original="#C0DBFF" style="fill:#C0DBFF" class=""/><path d="m86.597656 98.660156c-7.152344-3.722656-12.046875-11.199218-12.046875-19.828125 0-12.339843 10.011719-22.351562 22.351563-22.351562 12.351562 0 22.351562 10.011719 22.351562 22.351562 0 8.628907-4.898437 16.105469-12.050781 19.828125 12.902344 9.023438 21.65625 26.707032 27.851563 41.769532h-76.109376c5-12.402344 13.992188-32.175782 27.652344-41.769532zm0 0" fill="#81b8fd" data-original="#81B8FD" class="" style="fill:#81B8FD"/><g fill="#c8bebc"><path d="m291.050781 47.070312h37.402344c4.304687 0 7.796875-3.492187 7.796875-7.796874 0-4.304688-3.492188-7.796876-7.796875-7.796876h-37.402344c-4.304687 0-7.796875 3.492188-7.796875 7.796876 0 4.304687 3.492188 7.796874 7.796875 7.796874zm0 0" data-original="#000000" class="active-path" style="fill:#5B9AE2" data-old_color="#000000"/><path d="m328.453125 80.261719h-37.402344c-4.304687 0-7.796875 3.492187-7.796875 7.796875 0 4.308594 3.492188 7.796875 7.796875 7.796875h37.402344c4.304687 0 7.796875-3.488281 7.796875-7.796875 0-4.304688-3.492188-7.796875-7.796875-7.796875zm0 0" data-original="#000000" class="active-path" style="fill:#5B9AE2" data-old_color="#000000"/><path d="m328.453125 129.050781h-37.402344c-4.304687 0-7.796875 3.488281-7.796875 7.796875 0 4.304688 3.492188 7.796875 7.796875 7.796875h37.402344c4.304687 0 7.796875-3.492187 7.796875-7.796875 0-4.308594-3.492188-7.796875-7.796875-7.796875zm0 0" data-original="#000000" class="active-path" style="fill:#5B9AE2" data-old_color="#000000"/><path d="m230.875 31.476562h-40.753906c-4.304688 0-7.796875 3.492188-7.796875 7.796876 0 4.304687 3.492187 7.796874 7.796875 7.796874h40.753906c4.304688 0 7.796875-3.492187 7.796875-7.796874 0-4.304688-3.492187-7.796876-7.796875-7.796876zm0 0" data-original="#000000" class="active-path" style="fill:#5B9AE2" data-old_color="#000000"/><path d="m230.875 80.261719h-40.753906c-4.304688 0-7.796875 3.492187-7.796875 7.796875 0 4.308594 3.492187 7.796875 7.796875 7.796875h40.753906c4.304688 0 7.796875-3.488281 7.796875-7.796875 0-4.304688-3.492187-7.796875-7.796875-7.796875zm0 0" data-original="#000000" class="active-path" style="fill:#5B9AE2" data-old_color="#000000"/><path d="m230.875 129.050781h-40.753906c-4.304688 0-7.796875 3.488281-7.796875 7.796875 0 4.304688 3.492187 7.796875 7.796875 7.796875h40.753906c4.304688 0 7.796875-3.492187 7.796875-7.796875 0-4.308594-3.492187-7.796875-7.796875-7.796875zm0 0" data-original="#000000" class="active-path" style="fill:#5B9AE2" data-old_color="#000000"/><path d="m230.875 172.054688h-195.308594c-4.304687 0-7.796875 3.492187-7.796875 7.796874 0 4.308594 3.492188 7.796876 7.796875 7.796876h195.308594c4.304688 0 7.796875-3.488282 7.796875-7.796876 0-4.304687-3.492187-7.796874-7.796875-7.796874zm0 0" data-original="#000000" class="active-path" style="fill:#5B9AE2" data-old_color="#000000"/><path d="m153.042969 215.0625h-117.476563c-4.304687 0-7.796875 3.488281-7.796875 7.796875 0 4.304687 3.492188 7.796875 7.796875 7.796875h117.476563c4.304687 0 7.796875-3.492188 7.796875-7.796875 0-4.308594-3.492188-7.796875-7.796875-7.796875zm0 0" data-original="#000000" class="active-path" style="fill:#5B9AE2" data-old_color="#000000"/><path d="m204.675781 215.0625h-20.445312c-4.304688 0-7.796875 3.488281-7.796875 7.796875 0 4.304687 3.492187 7.796875 7.796875 7.796875h20.445312c4.304688 0 7.796875-3.492188 7.796875-7.796875 0-4.308594-3.488281-7.796875-7.796875-7.796875zm0 0" data-original="#000000" class="active-path" style="fill:#5B9AE2" data-old_color="#000000"/><path d="m141.605469 301.070312h-106.039063c-4.304687 0-7.796875 3.492188-7.796875 7.796876 0 4.308593 3.492188 7.796874 7.796875 7.796874h106.039063c4.308593 0 7.796875-3.488281 7.796875-7.796874 0-4.304688-3.488282-7.796876-7.796875-7.796876zm0 0" data-original="#000000" class="active-path" style="fill:#5B9AE2" data-old_color="#000000"/></g><path d="m319.679688 417.398438c-40.097657-.0625-60.941407-.070313-72.085938-.113282-13.507812-.042968-12.777344-.136718-14.878906-.457031v-20.53125c0-9.265625-5.199219-17.738281-13.441406-21.9375l-37.414063-19.035156c-4.679687-2.378907-6.539063-8.109375-4.160156-12.785157 5.769531-11.34375 19.660156-15.949218 31.136719-10.136718l14.003906 7.128906c4.523437 2.308594 9.875-.976562 9.875-6.058594l-.011719-27.488281-.007813-65.015625c0-11.769531 12.605469-19.769531 22.902344-13.839844h.011719c4.800781 2.695313 7.867187 7.820313 7.878906 13.414063 0-.21875-.019531-28.675781 0-28.890625.207031-7.269532 6.414063-14.929688 15.179688-15.378906.132812-.007813.277343-.019532.414062-.007813 8.578125-.269531 15.167969 6.039063 15.167969 15.175781v13.683594c0-.125 0-.261719.011719-.386719.195312-8.210937 6.871093-14.894531 15.21875-15h.375c8.410156.105469 15.1875 6.945313 15.1875 15.375l.03125 48c0-8.527343 6.914062-15.398437 15.386719-15.398437h.207031c8.410156.105468 15.1875 6.957031 15.1875 15.386718l.042969 107.664063v.277344c0 5.585937-1.269532 10.886719-3.523438 15.605469-5.8125 12.226562-18.257812 20.699218-32.695312 20.75zm0 0" fill="#f2d1a5" data-original="#F2D1A5" class="" style="fill:#F2D1A5" data-old_color="#f2d1a5"/><path d="m332.871094 308.355469c-4.304688 0-7.796875-3.484375-7.796875-7.796875v-27.445313c0-8.527343 6.914062-15.398437 15.386719-15.398437h.207031v42.84375c0 4.3125-3.492188 7.796875-7.796875 7.796875zm0 0" fill="#f2bb88" data-original="#F2BB88" style="fill:#F2BB88" class=""/><path d="m302.058594 301.960938c-4.304688 0-7.796875-3.492188-7.796875-7.796876v-69.425781c.195312-8.210937 6.871093-14.894531 15.21875-15h.375v84.425781c0 4.304688-3.496094 7.796876-7.796875 7.796876zm0 0" fill="#f2bb88" data-original="#F2BB88" style="fill:#F2BB88" class=""/><path d="m271.285156 301.410156c-4.316406 0-7.796875-3.492187-7.796875-7.796875v-81.960937c.207031-7.269532 6.414063-14.929688 15.179688-15.378906.132812-.007813.277343-.019532.414062-.007813v97.347656c0 4.304688-3.492187 7.796875-7.796875 7.796875zm0 0" fill="#f2bb88" data-original="#F2BB88" style="fill:#F2BB88" class=""/><path d="m247.59375 417.285156c-13.507812-.042968-12.777344-.136718-14.878906-.457031v-20.53125c0-9.265625-5.199219-17.738281-13.441406-21.9375l-37.414063-19.035156c-4.679687-2.378907-6.539063-8.109375-4.160156-12.785157 5.769531-11.34375 19.660156-15.949218 31.136719-10.136718l14.003906 7.128906c4.523437 2.308594 9.875-.976562 9.875-6.058594l-.011719-27.488281-.007813-65.015625c0-11.769531 12.605469-19.769531 22.902344-13.839844-4.804687 2.757813-8.027344 8.027344-8.027344 13.839844l.011719 65.015625.011719 27.488281zm0 0" fill="#f2bb88" data-original="#F2BB88" style="fill:#F2BB88" class=""/><path d="m358.414062 436.050781v55.226563c.003907 11.367187-7.007812 20.722656-15.589843 20.722656h-115c-8.582031 0-15.644531-9.289062-15.652344-20.660156v-55.226563c-.007813-11.367187 7.015625-20.671875 15.585937-20.679687l115.007813-.039063c8.574219-.003906 15.648437 9.292969 15.648437 20.65625zm0 0" fill="#fff5f4" data-original="#FFF5F4" class="" style="fill:#FFF5F4"/><path d="m358.414062 453.167969v38.109375c.003907 11.367187-7.007812 20.722656-15.589843 20.722656h-115c-8.582031 0-15.644531-9.289062-15.652344-20.660156v-38.171875zm0 0" fill="#81b8fd" data-original="#81B8FD" class="" style="fill:#81B8FD"/><path d="m321.976562 481.464844c0 5.894531 4.824219 10.71875 10.722657 10.71875 5.894531 0 10.722656-4.824219 10.722656-10.71875 0-5.898438-4.828125-10.722656-10.722656-10.722656-5.898438 0-10.722657 4.824218-10.722657 10.722656zm0 0" fill="#4394fb" data-original="#4394FB" class="" style="fill:#4394FB"/></g> </svg>
