<?xml version="1.0"?>
<svg xmlns="http://www.w3.org/2000/svg" height="512px" viewBox="0 0 464 464" width="512px" class=""><g><script xmlns=""/><path d="m96 0h272c17.671875 0 32 14.328125 32 32v352c0 17.671875-14.328125 32-32 32h-272c-17.671875 0-32-14.328125-32-32v-352c0-17.671875 14.328125-32 32-32zm0 0" fill="#87ced9" data-original="#87CED9" class=""/><path d="m64 384c0 17.671875 14.328125 32 32 32h129.335938l-161.335938-161.335938zm0 0" fill="#71c4d1" data-original="#71C4D1" class=""/><path d="m88 24h16v16h-16zm0 0" fill="#5eb3d1" data-original="#5EB3D1"/><path d="m120 24h16v16h-16zm0 0" fill="#5eb3d1" data-original="#5EB3D1"/><path d="m152 24h16v16h-16zm0 0" fill="#5eb3d1" data-original="#5EB3D1"/><path d="m208 304h256v64h-256zm0 0" fill="#fdb62f" data-original="#FDB62F" class=""/><g fill="#fd882f"><path d="m424 304h16v24h-16zm0 0" data-original="#000000"/><path d="m392 304h16v24h-16zm0 0" data-original="#000000"/><path d="m360 304h16v24h-16zm0 0" data-original="#000000"/><path d="m328 304h16v24h-16zm0 0" data-original="#000000"/><path d="m296 304h16v24h-16zm0 0" data-original="#000000"/><path d="m264 304h16v24h-16zm0 0" data-original="#000000"/><path d="m232 304h16v24h-16zm0 0" data-original="#000000"/></g><path d="m0 216v248h248zm48 120 80 80h-80zm0 0" fill="#e8594a" data-original="#E8594A" class="active-path" style="fill:#A614F2" data-old_color="#e8594a"/><path d="m352 280h-176c-4.417969 0-8-3.582031-8-8v-144c0-4.417969 3.582031-8 8-8h176c4.417969 0 8 3.582031 8 8v144c0 4.417969-3.582031 8-8 8zm-168-16h160v-128h-160zm0 0" fill="#5eb3d1" data-original="#5EB3D1"/><path d="m176 240c-48.601562 0-88-39.398438-88-88s39.398438-88 88-88 88 39.398438 88 88c-.054688 48.578125-39.421875 87.945312-88 88zm0-160c-39.765625 0-72 32.234375-72 72s32.234375 72 72 72 72-32.234375 72-72c-.046875-39.746094-32.253906-71.953125-72-72zm0 0" fill="#5eb3d1" data-original="#5EB3D1"/><path d="m441.375 16c12.496094 0 22.625 10.128906 22.625 22.625 0 6-2.382812 11.753906-6.625 16l-137.375 137.375-40 8 8-40 137.375-137.375c4.246094-4.242188 10-6.625 16-6.625zm0 0" fill="#4398d1" data-original="#4398D1"/><path d="m410.347656 37.660156 11.3125-11.316406 32 32-11.3125 11.316406zm0 0" fill="#126099" data-original="#126099" class=""/><path d="m282.347656 165.660156 11.3125-11.3125 32 32-11.3125 11.316406zm0 0" fill="#126099" data-original="#126099" class=""/><path d="m208 368h192v16h-192zm0 0" fill="#71c4d1" data-original="#71C4D1" class=""/></g> </svg>
