<?xml version="1.0" encoding="iso-8859-1"?>
<!-- Generator: Adobe Illustrator 19.0.0, SVG Export Plug-In . SVG Version: 6.00 Build 0)  -->
<svg version="1.1" id="Capa_1" xmlns="http://www.w3.org/2000/svg" xmlns:xlink="http://www.w3.org/1999/xlink" x="0px" y="0px"
	 viewBox="0 0 512 512" style="enable-background:new 0 0 512 512;" xml:space="preserve">
<g>
	<g transform="translate(1 1)">
		<path style="fill:#A4C2F7;" d="M468.334,227.864v44.203h-204.8v-44.203c0.041-11.327,6.038-21.796,15.787-27.563l51.712-30.635
			c1.435-0.782,2.321-2.292,2.304-3.925v-14.336c-0.022-0.946-0.318-1.865-0.853-2.645c-6.003-7.694-10.255-16.605-12.459-26.112
			c-0.665-3.396-2.329-6.516-4.779-8.96c-3.304-3.203-5.18-7.601-5.205-12.203V85.102c0.024-2.671,0.667-5.299,1.877-7.68
			l0.939-1.877c1.241-2.4,1.885-5.064,1.877-7.765V44.312c0.054-9.812,4.005-19.199,10.983-26.097s16.411-10.74,26.222-10.682
			h27.989c9.812-0.059,19.244,3.784,26.222,10.682c6.978,6.898,10.929,16.286,10.983,26.097v23.467
			c-0.007,2.702,0.637,5.365,1.877,7.765l0.939,1.877c1.21,2.381,1.853,5.009,1.877,7.68v16.384
			c-0.026,4.602-1.902,8.999-5.205,12.203c-2.45,2.444-4.114,5.564-4.779,8.96c-2.203,9.507-6.455,18.418-12.459,26.112
			c-0.535,0.78-0.832,1.699-0.853,2.645v14.336c-0.017,1.634,0.869,3.144,2.304,3.925l51.712,30.635
			C462.296,206.068,468.292,216.538,468.334,227.864z"/>
		<path style="fill:#E3E7F2;" d="M442.734,227.864v44.203h-179.2v-44.203c0.041-11.327,6.038-21.796,15.787-27.563l51.712-30.635
			c1.435-0.782,2.321-2.292,2.304-3.925v-14.336c-0.022-0.946-0.318-1.865-0.853-2.645c-6.003-7.694-10.255-16.605-12.459-26.112
			c-0.665-3.396-2.329-6.516-4.779-8.96c-3.304-3.203-5.18-7.601-5.205-12.203V85.102c0.024-2.671,0.667-5.299,1.877-7.68
			l0.939-1.877c1.241-2.4,1.885-5.064,1.877-7.765V44.312c0.054-9.812,4.005-19.199,10.983-26.097s16.411-10.74,26.222-10.682h2.389
			c9.812-0.059,19.244,3.784,26.222,10.682c6.978,6.898,10.929,16.286,10.983,26.097v23.467c-0.007,2.702,0.637,5.365,1.877,7.765
			l0.939,1.877c1.21,2.381,1.853,5.009,1.877,7.68v16.384c-0.026,4.602-1.902,8.999-5.205,12.203
			c-2.45,2.444-4.114,5.564-4.779,8.96c-2.203,9.507-6.455,18.418-12.459,26.112c-0.535,0.78-0.832,1.699-0.853,2.645v14.336
			c-0.017,1.634,0.869,3.144,2.304,3.925l51.712,30.635C436.696,206.068,442.692,216.538,442.734,227.864z"/>
		<path style="fill:#A4C2F7;" d="M502.467,263.534v136.533H7.534v-153.6H485.4C494.814,246.495,502.439,254.119,502.467,263.534z"/>
		<path style="fill:#E3E7F2;" d="M476.867,263.534v136.533H7.534v-153.6H459.8C469.214,246.495,476.839,254.119,476.867,263.534z"/>
		<path style="fill:#A4C2F7;" d="M245.784,348.867H41.667c1.466-10.223,7.409-19.263,16.213-24.661c0,0,31.232-16.896,49.408-27.904
			c1.863-1.161,2.736-3.412,2.144-5.525s-2.509-3.582-4.704-3.605H56.344c-3.664,0.082-7.07-1.875-8.844-5.082
			c-1.774-3.207-1.621-7.133,0.396-10.193c14.609-23.42,24.844-49.297,30.208-76.373c1.506-7.097,2.25-14.334,2.219-21.589
			c-0.016-16.941,6.672-33.2,18.603-45.227c8.708-8.859,19.842-14.945,32-17.493c4.213-0.856,8.501-1.285,12.8-1.28
			c16.849-0.014,32.994,6.752,44.8,18.773c11.931,12.027,18.618,28.286,18.603,45.227c-0.031,7.255,0.712,14.492,2.219,21.589
			c5.364,27.076,15.599,52.954,30.208,76.373c2.017,3.06,2.17,6.986,0.396,10.193s-5.18,5.164-8.844,5.082h-48.725
			c-2.126,0.175-3.901,1.692-4.405,3.765c-0.504,2.073,0.377,4.235,2.186,5.366c18.176,11.008,49.408,27.904,49.408,27.904
			C238.375,329.605,244.318,338.644,245.784,348.867z"/>
		<path style="fill:#D4E1F4;" d="M104.728,287.171H56.344c-3.664,0.082-7.07-1.875-8.844-5.082
			c-1.774-3.207-1.621-7.133,0.396-10.193c14.609-23.42,24.844-49.297,30.208-76.373c1.506-7.097,2.25-14.334,2.219-21.589
			c-0.016-16.941,6.672-33.2,18.603-45.227c8.708-8.859,19.842-14.945,32-17.493c12.158,2.548,23.292,8.635,32,17.493
			c11.931,12.027,18.618,28.286,18.603,45.227c-0.031,7.255,0.712,14.492,2.219,21.589c5.364,27.076,15.599,52.954,30.208,76.373
			c2.017,3.06,2.17,6.986,0.396,10.193s-5.18,5.164-8.844,5.082h-48.384c-2.195,0.023-4.111,1.492-4.704,3.605
			s0.281,4.364,2.144,5.525c18.176,11.008,49.408,27.904,49.408,27.904c8.804,5.399,14.747,14.438,16.213,24.661H41.667
			c1.466-10.223,7.409-19.263,16.213-24.661c0,0,31.232-16.896,49.408-27.904c1.863-1.161,2.736-3.412,2.144-5.525
			S106.923,287.194,104.728,287.171z"/>
		<path style="fill:#E3E7F2;" d="M374.467,408.6h51.2v85.333c0,4.713-3.821,8.533-8.533,8.533H383c-4.713,0-8.533-3.82-8.533-8.533
			V408.6z"/>
		<path style="fill:#A4C2F7;" d="M502.467,383v25.6c-0.028,9.414-7.652,17.039-17.067,17.067H7.534V383H502.467z"/>
		<path style="fill:#E3E7F2;" d="M476.867,383v25.6c-0.028,9.414-7.652,17.039-17.067,17.067H7.534V383H476.867z"/>
		<path style="fill:#7FABFA;" d="M280.6,357.656v144.811H7.534l0-144.811c-0.003-2.332,0.922-4.57,2.571-6.219
			c1.649-1.649,3.887-2.574,6.219-2.571h255.488c2.332-0.003,4.57,0.922,6.219,2.571C279.679,353.087,280.604,355.324,280.6,357.656
			z"/>
		<path style="fill:#E3E7F2;" d="M255,357.656v144.811H7.534l0-144.811c-0.003-2.332,0.922-4.57,2.571-6.219
			c1.649-1.649,3.887-2.574,6.219-2.571h229.888c2.332-0.003,4.57,0.922,6.219,2.571C254.079,353.087,255.004,355.324,255,357.656z"
			/>
		<g>
			<polygon style="fill:#FFFFFF;" points="33.134,425.667 33.134,400.067 33.134,383 33.134,357.656 33.134,246.467 7.534,246.467 
				7.534,357.656 7.534,383 7.534,400.067 7.534,425.667 7.534,502.467 33.134,502.467 			"/>
			<path style="fill:#FFFFFF;" d="M289.134,227.864c0.041-11.327,6.038-21.796,15.787-27.563l51.712-30.635
				c1.435-0.782,2.321-2.292,2.304-3.925v-14.336c-0.022-0.946-0.318-1.865-0.853-2.645c-6.003-7.694-10.255-16.605-12.459-26.112
				c-0.665-3.396-2.329-6.516-4.779-8.96c-3.304-3.203-5.18-7.601-5.205-12.203V85.101c0.024-2.671,0.667-5.299,1.877-7.68
				l0.939-1.877c1.241-2.4,1.885-5.064,1.877-7.765V44.312c0.054-9.812,4.005-19.199,10.983-26.097
				c6.978-6.898,16.411-10.74,26.222-10.682l-25.6,0.001c-9.812-0.059-19.244,3.784-26.222,10.682S314.788,34.5,314.734,44.312
				v23.467c0.007,2.702-0.637,5.365-1.877,7.765l-0.939,1.877c-1.21,2.381-1.853,5.009-1.877,7.68v16.384
				c0.026,4.602,1.902,8.999,5.205,12.203c2.45,2.444,4.114,5.564,4.779,8.96c2.203,9.507,6.455,18.418,12.459,26.112
				c0.535,0.78,0.832,1.699,0.853,2.645v14.336c0.017,1.634-0.869,3.144-2.304,3.925l-51.712,30.635
				c-9.749,5.766-15.746,16.236-15.787,27.563v18.603h25.6V227.864z"/>
		</g>
	</g>
	<g>
		<polygon style="fill:#FFFFFF;" points="8.534,494.934 119.467,494.934 281.6,494.934 281.6,512 119.467,512 8.534,512 		"/>
		<g>
			<path style="fill:#428DFF;" d="M82.859,509.526c0.77-0.815,1.379-1.77,1.792-2.813c0.438-1.027,0.67-2.13,0.683-3.246
				c-0.014-3.45-2.096-6.556-5.282-7.879c-3.187-1.323-6.856-0.606-9.31,1.82l-1.025,1.279c-0.324,0.476-0.583,0.993-0.771,1.538
				c-0.246,0.484-0.417,1.002-0.508,1.537c-0.096,0.564-0.153,1.133-0.171,1.704c0.031,2.259,0.915,4.423,2.475,6.059
				C74.138,512.747,79.462,512.747,82.859,509.526L82.859,509.526z"/>
			<path style="fill:#428DFF;" d="M486.4,238.934h-8.533V228.9c-0.079-14.342-7.674-27.591-20.008-34.908l-49.808-29.517v-10.708
				c6.321-8.437,10.801-18.106,13.15-28.383c0.34-1.752,1.197-3.363,2.458-4.625c4.914-4.816,7.677-11.411,7.663-18.292V86.134
				c-0.006-4.03-0.956-8.003-2.775-11.6l-0.95-1.875c-0.608-1.201-0.926-2.528-0.929-3.875V45.292
				C426.506,20.158,406.03-0.103,380.896,0h-27.925c-25.134-0.103-45.61,20.158-45.771,45.292v23.492
				c-0.003,1.34-0.316,2.661-0.917,3.858l-0.975,1.908c-1.811,3.593-2.757,7.56-2.762,11.583v16.333
				c-0.014,6.885,2.754,13.484,7.675,18.3c1.255,1.262,2.106,2.869,2.446,4.617c2.346,10.281,6.826,19.953,13.15,28.392v10.692
				L276,194c-12.331,7.316-19.922,20.562-20,34.9v10.033h-23.083c-5.734-14.338-10.267-29.128-13.551-44.217
				c-1.374-6.504-2.052-13.136-2.021-19.783c0.061-19.192-7.515-37.619-21.058-51.217c-13.413-13.634-31.737-21.314-50.863-21.317
				c-19.126-0.003-37.453,7.67-50.87,21.3c-13.558,13.597-21.144,32.033-21.083,51.234c0.029,6.645-0.648,13.274-2.021,19.775
				c-3.33,15.302-7.946,30.295-13.797,44.82c-0.94-0.374-1.94-0.576-2.952-0.595H8.534c-2.263-0.001-4.434,0.898-6.035,2.499
				c-1.6,1.6-2.499,3.771-2.499,6.035v102.4c0.016,1.262,0.317,2.503,0.88,3.632c-0.559,1.672-0.855,3.421-0.88,5.184v144.783
				c-0.001,2.263,0.898,4.434,2.499,6.035S6.27,512.001,8.534,512h34.133c4.713,0,8.533-3.821,8.533-8.533
				c0-4.713-3.821-8.533-8.533-8.533H17.084L17.346,358.4l255.72,0.283v136.25H110.934c-4.713,0-8.533,3.821-8.533,8.533
				c0,4.713,3.821,8.533,8.533,8.533H281.6c2.263,0.001,4.434-0.898,6.035-2.499c1.6-1.6,2.499-3.771,2.499-6.035V435.2h76.8v59.733
				c0.011,9.421,7.645,17.056,17.067,17.067h34.133c9.421-0.011,17.056-7.645,17.067-17.067V435.2h51.2
				c14.132-0.015,25.585-11.468,25.6-25.6V264.534C511.985,250.402,500.532,238.949,486.4,238.934z M273.067,228.9
				c0-8.334,4.435-16.039,11.642-20.225l51.6-30.583c4.091-2.312,6.608-6.659,6.575-11.358v-14.292
				c-0.008-2.777-0.898-5.479-2.542-7.717c-5.237-6.722-8.973-14.488-10.958-22.775c-1.02-5.061-3.52-9.704-7.183-13.342
				c-1.656-1.614-2.589-3.829-2.587-6.142V86.134c0.002-1.343,0.315-2.666,0.917-3.867l0.975-1.908
				c1.81-3.59,2.756-7.554,2.762-11.575V45.292c0.149-15.713,12.991-28.34,28.704-28.225h27.925
				c15.714-0.115,28.555,12.512,28.704,28.225v23.492c0.007,4.028,0.957,7.998,2.775,11.592l0.95,1.875
				c0.609,1.204,0.927,2.534,0.929,3.883v16.333c0,2.315-0.934,4.533-2.592,6.15c-3.663,3.633-6.162,8.275-7.179,13.333
				c-1.995,8.313-5.749,16.102-11.008,22.842c-1.616,2.224-2.488,4.901-2.492,7.65v14.292c-0.044,4.655,2.427,8.972,6.462,11.292
				l51.704,30.642c7.211,4.187,11.648,11.895,11.65,20.233v10.033H273.067V228.9z M88.129,198.334
				c1.629-7.693,2.436-15.537,2.408-23.4c-0.046-14.705,5.766-28.822,16.15-39.233c10.213-10.387,24.17-16.236,38.737-16.233
				c14.567,0.003,28.522,5.858,38.73,16.25c10.37,10.412,16.171,24.521,16.125,39.216c-0.03,7.866,0.779,15.713,2.413,23.408
				c3.856,17.868,9.423,35.324,16.622,52.126c0.089,0.235,0.192,0.447,0.3,0.671c4.027,9.34,8.933,18.276,14.652,26.686
				c0.213,0.27,0.218,0.649,0.012,0.925c-0.28,0.563-0.864,0.908-1.492,0.883h-48.383c-6.024,0.024-11.3,4.045-12.922,9.847
				c-1.622,5.802,0.805,11.975,5.943,15.12c18.146,10.992,48.488,27.417,49.358,27.875c3.559,2.216,6.533,5.254,8.673,8.858H55.33
				c2.032-3.497,4.878-6.453,8.295-8.617c1.279-0.7,31.621-17.125,49.8-28.142c5.122-3.155,7.531-9.325,5.903-15.116
				c-1.628-5.792-6.899-9.802-12.916-9.825H58.025c-0.626,0.024-1.209-0.322-1.487-0.883c-0.213-0.293-0.196-0.693,0.042-0.967
				C71.853,253.446,82.545,226.519,88.129,198.334L88.129,198.334z M17.067,341.362V256h32.829
				c-2.198,4.127-4.63,8.125-7.283,11.975c-3.873,5.485-4.349,12.677-1.233,18.625c3.216,6.222,9.642,10.121,16.646,10.1h35.151
				c-17.167,9.9-37.5,20.917-38.083,21.242c-8.723,5.362-15.253,13.654-18.419,23.392H17.346
				C17.25,341.334,17.162,341.36,17.067,341.362z M272.788,341.334H254.14c-3.256-9.87-9.932-18.251-18.823-23.633
				c-0.254-0.133-20.533-11.117-37.675-21h35.146c7.004,0.023,13.432-3.877,16.646-10.1c3.112-5.93,2.65-13.101-1.196-18.583
				c-2.664-3.863-5.105-7.875-7.312-12.017H486.4c4.711,0.005,8.529,3.822,8.533,8.533v110.933h-204.8v-16.783
				C290.123,349.108,282.364,341.346,272.788,341.334z M418.146,494.934H384V435.2h34.133L418.146,494.934z M494.934,409.6
				c-0.005,4.711-3.822,8.529-8.533,8.533H290.134v-25.6h204.8V409.6z"/>
		</g>
	</g>
</g>
<g>
</g>
<g>
</g>
<g>
</g>
<g>
</g>
<g>
</g>
<g>
</g>
<g>
</g>
<g>
</g>
<g>
</g>
<g>
</g>
<g>
</g>
<g>
</g>
<g>
</g>
<g>
</g>
<g>
</g>
</svg>
