<?xml version="1.0"?>
<svg xmlns="http://www.w3.org/2000/svg" height="512px" viewBox="-1 0 511 511.99968" width="512px" class=""><g><script xmlns=""/><g><script xmlns=""/><g><script xmlns=""/><path d="m394.726562 436.507812h-278.144531c-8.675781 0-15.710937-7.035156-15.710937-15.714843v-405.078125c0-8.679688 7.035156-15.714844 15.710937-15.714844h278.144531c8.675782 0 15.714844 7.035156 15.714844 15.714844v405.078125c0 8.679687-7.039062 15.714843-15.714844 15.714843zm0 0" fill="#fff4f1" data-original="#FAF5F4" class="" style="fill:#FAF5F4" data-old_color="#fff4f1"/><path d="m394.726562 0h-31.429687c8.679687 0 15.714844 7.035156 15.714844 15.714844v405.078125c0 8.679687-7.035157 15.714843-15.714844 15.714843h31.429687c8.675782 0 15.714844-7.035156 15.714844-15.714843v-405.078125c0-8.679688-7.039062-15.714844-15.714844-15.714844zm0 0" fill="#ece8e5" data-original="#ECE8E5" class=""/><path d="m189.269531 328.570312h-21.34375c-4.628906 0-8.382812-3.753906-8.382812-8.382812v-9.710938c0-5.207031 4.222656-9.429687 9.429687-9.429687h19.25c5.207032 0 9.429688 4.222656 9.429688 9.429687l10.472656 4.332032-10.472656 5.382812c0 4.625-3.753906 8.378906-8.382813 8.378906zm0 0" fill="#f45a3c" data-original="#F45A3C" class=""/><path d="m227.378906 328.570312h-21.347656c-4.628906 0-8.378906-3.753906-8.378906-8.382812v-25.941406c0-5.207032 4.21875-9.429688 9.425781-9.429688h19.25c5.210937 0 9.429687 4.222656 9.429687 9.429688l10.476563 12.445312-10.476563 13.496094c0 4.628906-3.75 8.382812-8.378906 8.382812zm0 0" fill="#ffd5cc" data-original="#696261" class="" style="fill:#696261" data-old_color="#ffd5cc"/><path d="m265.484375 328.570312h-21.34375c-4.628906 0-8.382813-3.753906-8.382813-8.382812v-41.46875c0-5.207031 4.222657-9.429688 9.429688-9.429688h19.25c5.207031 0 9.429688 4.222657 9.429688 9.429688l10.476562 20.210938-10.476562 21.257812c0 4.628906-3.753907 8.382812-8.382813 8.382812zm0 0" fill="#5e8ee1" data-original="#5E8EE1" class=""/><path d="m303.59375 328.570312h-21.347656c-4.628906 0-8.378906-3.753906-8.378906-8.382812v-53.464844c0-5.207031 4.21875-9.429687 9.425781-9.429687h19.253906c5.207031 0 9.425781 4.222656 9.425781 9.429687l10.476563 26.210938-10.476563 27.253906c0 4.628906-3.75 8.382812-8.378906 8.382812zm0 0" fill="#7cd6e6" data-original="#86C9FC" class="" data-old_color="#7cd6e6" style="fill:#86C9FC"/><path d="m341.699219 328.570312h-21.34375c-4.628907 0-8.382813-3.753906-8.382813-8.382812v-69.695312c0-5.207032 4.222656-9.429688 9.429688-9.429688h19.25c5.207031 0 9.429687 4.222656 9.429687 9.429688v69.695312c0 4.628906-3.753906 8.382812-8.382812 8.382812zm0 0" fill="#ffe056" data-original="#86C9FC" class="" data-old_color="#ffe056" style="fill:#86C9FC"/><g fill="#e3ded9"><path d="m215.941406 68.550781h-61.730468c-4.339844 0-7.855469-3.519531-7.855469-7.859375 0-4.335937 3.515625-7.855468 7.855469-7.855468h61.730468c4.339844 0 7.859375 3.519531 7.859375 7.855468 0 4.339844-3.519531 7.859375-7.859375 7.859375zm0 0" data-original="#000000" class=""/><path d="m348.535156 119.882812h-194.324218c-4.339844 0-7.855469-3.519531-7.855469-7.859374 0-4.335938 3.515625-7.855469 7.855469-7.855469h194.324218c4.339844 0 7.855469 3.519531 7.855469 7.855469 0 4.339843-3.515625 7.859374-7.855469 7.859374zm0 0" data-original="#000000" class=""/><path d="m348.535156 151.308594h-194.324218c-4.339844 0-7.855469-3.515625-7.855469-7.855469s3.515625-7.855469 7.855469-7.855469h194.324218c4.339844 0 7.855469 3.515625 7.855469 7.855469s-3.515625 7.855469-7.855469 7.855469zm0 0" data-original="#000000" class=""/><path d="m348.535156 182.738281h-194.324218c-4.339844 0-7.855469-3.519531-7.855469-7.855469 0-4.339843 3.515625-7.859374 7.855469-7.859374h194.324218c4.339844 0 7.855469 3.519531 7.855469 7.859374 0 4.335938-3.515625 7.855469-7.855469 7.855469zm0 0" data-original="#000000" class=""/><path d="m348.535156 214.167969h-194.324218c-4.339844 0-7.855469-3.519531-7.855469-7.859375s3.515625-7.855469 7.855469-7.855469h194.324218c4.339844 0 7.855469 3.515625 7.855469 7.855469s-3.515625 7.859375-7.855469 7.859375zm0 0" data-original="#000000" class=""/><path d="m354.929688 334.078125h-195.25c-3.625 0-6.589844-2.964844-6.589844-6.589844s2.964844-6.589843 6.589844-6.589843h195.25c3.625 0 6.589843 2.964843 6.589843 6.589843s-2.964843 6.589844-6.589843 6.589844zm0 0" data-original="#000000" class=""/></g><path d="m127.664062 489.699219c-9.859374-17-28.886718-46.269531-50.757812-46.269531-21.925781 0-41 29.332031-50.835938 46.40625-.59375 1.03125-1.058593 2.082031-1.40625 3.140624 13.144532 11.734376 30.613282 18.886719 49.792969 18.886719 20.898438 0 39.757813-8.507812 53.207031-22.164062zm0 0" fill="#fff4f1" data-original="#FAF5F4" class="" style="fill:#FAF5F4" data-old_color="#fff4f1"/><path d="m76.675781 443.550781c-4.585937.03125-9.035156 1.355469-13.296875 3.570313 5.398438 2.714844 10.523438 6.867187 15.242188 11.6875 16.894531 17.253906 8.261718 46.691406-15.359375 51.707031-.640625.136719-1.28125.261719-1.929688.382813 4.335938.746093 8.796875 1.132812 13.355469 1.097656 20.898438-.140625 39.699219-8.777344 53.058594-22.527344-9.976563-16.929688-29.203125-46.066406-51.070313-45.917969zm0 0" fill="#e8e4e0" data-original="#E8E4E0" class=""/><path d="m76.910156 461.179688c21.867188 0 40.894532 11.519531 50.753906 28.519531 12.839844-13.039063 20.75-30.765625 20.75-50.316407 0-40.027343-33.113281-72.476562-73.957031-72.476562s-73.957031 32.449219-73.957031 72.476562c0 21.238282 9.320312 40.335938 24.167969 53.59375.34375-1.058593.808593-2.113281 1.402343-3.144531 9.835938-17.074219 28.910157-28.652343 50.839844-28.652343zm0 0" fill="#f7ee7d" data-original="#73C9F5" class="active-path" data-old_color="#f7ee7d" style="fill:#73C9F5"/><path d="m74.457031 366.90625c-3.578125 0-7.097656.253906-10.539062.734375 35.851562 5.015625 63.414062 35.222656 63.414062 71.746094 0 13.546875-3.800781 26.214843-10.40625 37.058593 4.246094 3.859376 7.878907 8.324219 10.738281 13.253907 12.839844-13.039063 20.75-30.765625 20.75-50.316407 0-40.027343-33.113281-72.476562-73.957031-72.476562zm0 0" fill="#ffe056" data-original="#86C9FC" class="" data-old_color="#ffe056" style="fill:#86C9FC"/><path d="m93.121094 415.953125c0-12.128906-7.761719-21.960937-17.332032-21.960937-9.570312 0-17.332031 9.832031-17.332031 21.960937 0 12.132813 7.761719 21.964844 17.332031 21.964844 9.570313 0 17.332032-9.832031 17.332032-21.964844zm0 0" fill="#ffd5cc" data-original="#696261" class="" style="fill:#696261" data-old_color="#ffd5cc"/><path d="m308.863281 489.699219c-9.859375-17-28.886719-46.269531-50.757812-46.269531-21.925781 0-41 29.332031-50.835938 46.40625-.59375 1.03125-1.058593 2.082031-1.40625 3.140624 13.144531 11.734376 30.613281 18.886719 49.792969 18.886719 20.894531 0 39.753906-8.507812 53.207031-22.164062zm0 0" fill="#fff4f1" data-original="#FAF5F4" class="" style="fill:#FAF5F4" data-old_color="#fff4f1"/><path d="m257.875 443.550781c-4.585938.03125-9.035156 1.355469-13.300781 3.570313 5.402343 2.714844 10.523437 6.867187 15.246093 11.6875 16.890626 17.253906 8.261719 46.691406-15.359374 51.707031-.640626.136719-1.285157.261719-1.929688.382813 4.335938.746093 8.796875 1.132812 13.355469 1.097656 20.898437-.140625 39.699219-8.777344 53.054687-22.527344-9.972656-16.929688-29.199218-46.066406-51.066406-45.917969zm0 0" fill="#e8e4e0" data-original="#E8E4E0" class=""/><path d="m258.105469 461.179688c21.871093 0 40.898437 11.519531 50.757812 28.519531 12.835938-13.039063 20.746094-30.765625 20.746094-50.316407 0-40.027343-33.109375-72.476562-73.953125-72.476562-40.847656 0-73.957031 32.449219-73.957031 72.476562 0 21.238282 9.316406 40.335938 24.164062 53.59375.347657-1.058593.8125-2.113281 1.40625-3.144531 9.835938-17.074219 28.910157-28.652343 50.835938-28.652343zm0 0" fill="#fc9086" data-original="#86C9FC" class="" data-old_color="#fc9086" style="fill:#86C9FC"/><path d="m255.65625 366.90625c-3.582031 0-7.097656.253906-10.542969.734375 35.851563 5.015625 63.417969 35.222656 63.417969 71.746094 0 13.546875-3.800781 26.214843-10.40625 37.058593 4.246094 3.859376 7.878906 8.324219 10.738281 13.253907 12.835938-13.039063 20.746094-30.765625 20.746094-50.316407 0-40.027343-33.109375-72.476562-73.953125-72.476562zm0 0" fill="#f57a73" data-original="#73C9F5" class="active-path" data-old_color="#f57a73" style="fill:#73C9F5"/><path d="m274.320312 415.953125c0-12.128906-7.761718-21.960937-17.332031-21.960937-9.574219 0-17.332031 9.832031-17.332031 21.960937 0 12.132813 7.757812 21.964844 17.332031 21.964844 9.570313 0 17.332031-9.832031 17.332031-21.964844zm0 0" fill="#ffd5cc" data-original="#696261" class="" style="fill:#696261" data-old_color="#ffd5cc"/><path d="m489.375 489.699219c-9.859375-17-28.886719-46.269531-50.753906-46.269531-21.929688 0-41.003906 29.332031-50.839844 46.40625-.59375 1.03125-1.058594 2.082031-1.402344 3.140624 13.140625 11.734376 30.609375 18.886719 49.789063 18.886719 20.898437 0 39.757812-8.507812 53.207031-22.164062zm0 0" fill="#fff4f1" data-original="#FAF5F4" class="" style="fill:#FAF5F4" data-old_color="#fff4f1"/><path d="m438.386719 443.550781c-4.582031.03125-9.035157 1.355469-13.296875 3.570313 5.402344 2.714844 10.523437 6.867187 15.242187 11.6875 16.894531 17.253906 8.265625 46.691406-15.355469 51.707031-.640624.136719-1.285156.261719-1.933593.382813 4.335937.746093 8.800781 1.132812 13.359375 1.097656 20.894531-.140625 39.699218-8.777344 53.054687-22.527344-9.972656-16.929688-29.199219-46.066406-51.070312-45.917969zm0 0" fill="#e8e4e0" data-original="#E8E4E0" class=""/><path d="m438.621094 461.179688c21.867187 0 40.894531 11.519531 50.753906 28.519531 12.839844-13.039063 20.75-30.765625 20.75-50.316407 0-40.027343-33.113281-72.476562-73.957031-72.476562s-73.957031 32.449219-73.957031 72.476562c0 21.238282 9.320312 40.335938 24.167968 53.59375.34375-1.058593.808594-2.113281 1.402344-3.144531 9.835938-17.074219 28.910156-28.652343 50.839844-28.652343zm0 0" fill="#9ddbdf" data-original="#73C9F5" class="active-path" style="fill:#73C9F5" data-old_color="#9ddbdf"/><path d="m436.167969 366.90625c-3.578125 0-7.097657.253906-10.539063.734375 35.851563 5.015625 63.414063 35.222656 63.414063 71.746094 0 13.546875-3.800781 26.214843-10.40625 37.058593 4.246093 3.859376 7.878906 8.324219 10.738281 13.253907 12.839844-13.039063 20.75-30.765625 20.75-50.316407 0-40.027343-33.113281-72.476562-73.957031-72.476562zm0 0" fill="#7cd6e6" data-original="#86C9FC" class="" data-old_color="#7cd6e6" style="fill:#86C9FC"/><path d="m454.832031 415.953125c0-12.128906-7.757812-21.960937-17.332031-21.960937-9.570312 0-17.332031 9.832031-17.332031 21.960937 0 12.132813 7.761719 21.964844 17.332031 21.964844 9.574219 0 17.332031-9.832031 17.332031-21.964844zm0 0" fill="#ffd5cc" data-original="#696261" class="" style="fill:#696261" data-old_color="#ffd5cc"/></g></g></g> </svg>
